<svg width="390.278" height="308.081" class="looka-1j8o68f" viewBox="0 0 225 177.612"><path fill="#6d206b" d="M101.05.273c-.195.587-.39.196-.978.196.196-.588.783-.588.979-.196zm2.545-.196c1.762.196 3.132.196.783.587-.195-.195-.783 0-.783-.587zM99.29.47c-.587.391-.978.195-1.957.195.196-.587 1.37-.587 1.957-.195zm7.243 0c0-.588 1.174-.196 1.565-.196-.195.783-.782 0-1.565.196zm2.348 0c.392-.783 1.175.195 1.762 0-.196.391-1.566.195-1.762 0zm-13.114 0c-1.566.978-4.502.587-6.46 1.174-1.37.196-2.544-.391-.39-.196 1.76-.783 4.501-.587 6.85-.978zm15.463.195c.196-.587 1.175 0 1.566 0-.196.979-.978 0-1.566 0zm-9.982.196c.195.196 0 0 0 0zm21.14 4.306c0-.391-.196 0 0 0 .195.588.978.392.978.979.392 0 .392-.391.196-.783 1.174.392.196.587.587 1.174 4.306 2.35 6.46 7.634 7.047 11.94.195 1.37.978 2.74 1.174 4.111v4.502c-.196 8.613-3.523 17.03-6.068 24.859-.391 0-.391-.392-.391-.783.391 0 .195-.392.391-.587-.391 0-.196.391-.391.587-3.524 5.676-6.46 12.136-11.157 16.638.195.783-.98 1.37-.196 1.761-.979.98-1.762 1.958-3.523 2.154 0 .782.783-.783.587.391-.196 0-.196.196-.392.196 0-.196-.195-.196-.195 0-.588 0-.783.391-.98.783-.39.195-.782.391-.782.978-.979 0-1.175.783-1.566 1.37-.391 0-.783.588 0 .392-.196.392-.783 1.37-1.174.783.391-.196 0-.391 0 0-1.958 1.174-3.524 3.132-5.481 4.502 0 .783.783-.587.783.196-1.762.587-4.306 1.566-5.285 3.327-.196-.195-.196 0-.196.196-.979-.391-.979 1.174-1.762.391-.195.588 0 .783.588.783-2.35.392-5.677 2.154-6.46 4.111-.391.783-.783-.196-.978.391 0 .196.391.196.587.196 0 1.762-1.762.392-2.349 1.762-.391-.587-.783-.587-1.37-.587-.196.978.391.195.587.587.196.979-1.37.196-1.174.783 1.566.587 3.327-.783 3.914-1.175-.587 1.958-2.74 1.762-5.676 1.958 0-.783.783-.587 1.174-.783-.391-.587-.195-.979-.391-1.37-.783 0 0 .391-.783.978-.783-.391-.587 0-1.174-.391 0 .196 0 1.566-.98.783.197-.392.588-.392.588-.783-.587 0-.783-.196-1.174.391 0 .588.391.783.587.392v1.174c-.587.392-1.566-.587-1.762.783-.391 0-.196-.587-.587-.587 0 .196 0 .979-.587 1.174-.392 0-.783 0-.783.196-.196 0-.587.196-.587-.196-.196-1.174.783 0 1.37-.587-.196-.587-1.175-.196-.783-.979-.196.196-.392.588-1.175.392 0 .783 0 1.566-.587 1.957-.783.196-.783-.391-.979-.783-.587.196-.783.392-.978.98-.392.195 0 .195 0 0 .587.195.978-.784.978.195-1.761-.196-1.174 1.761-2.544 1.957-.392-.783.783-.196.391-.978-1.174-.196-1.174.978-2.349.782 0-.391.196-.587.196-.782h-.587c-.392.391-.196.587-.587 1.37-.783-.588-1.958.195-2.545-.196-.196.783.783.196.392.979-.783.195-.588-.588-1.175-.783-.979.195.783.783-.196 1.37-.783.391-.391-.783-1.174-.587-.391 0 0 .978-.391 1.174-.783-.391-.588-1.566-1.762-1.37 0 .979.979.783 1.174 1.566-.587 0-1.566.391-2.74.783.783 0 .783.978 1.957.783-.195.391-1.957.391-.978.978-1.566 0-3.328.783-5.285 1.175.195-.979 1.761-.392 1.761-1.566.783-.196 1.37.587 2.154 0-.588-.196-.98-1.174.195-.979-.195-1.174-1.174 0-1.761-.978-.783.391.783.783 0 1.174-.588.391-.783.196-1.37-.196-.392.587-1.762 1.762-2.74.979.195-.392.782 0 .978-.587-.196-.587-1.175 0-.979.587-.587 0-.783.391-1.37.196-.196-.588.783-.979.196-1.175.783-.587 2.153-.391 2.74.196 0-.587-.391-.783-.391-1.174-.783.391-1.762.391-2.545.587 0 0-.979.978-.392 1.566 0 .391-.391.195-.587.391 0-.196-.587-.196-.978-.196-.196-.783.782-.587.195-1.174-.978.587-.391 1.566-.391 2.936.783 0 .587-.783 1.37-.587-.196 1.37.783.587 1.174.979-2.74 1.565-4.306 1.174-7.046 1.174 1.566.979-1.762.391-2.74 1.174 0-.783-.588-1.37-1.762-1.565-.979.195-1.37.978-2.545 1.174.196.196.196.391 0 .587.783.783 2.35-.587 3.132.196-.979.979-3.523.783-4.11.391-.392 0-.196.392-.196.783-1.958.783-4.698.783-6.851 1.175-.587.391-.783 1.37-.979 2.153-.783.391-.391-.783-1.37-.392-.196 0-.196.392-.196.588-.195 0-.195.195-.195.391s.195 0 .195-.391c1.37-.392-.587 2.544-1.174 2.348 0 .392.587.196.391.783h-.587c.196 1.566-.783 1.37-.196 3.328-.587.391-.391 0-.978 0-.196 2.153-.392 4.306-1.958 6.264 0 .587 0 .978.196 1.174-.196 1.175-.979 2.936-.587 4.11-3.132 10.766-5.285 19.966-9.004 30.927-.392.196-.783.392-1.175.783.392 1.175-.587 2.545-.391 3.915-.587-.587-.783 0-.979.392 0 .391.196.587.783.587-1.761 2.74 0 6.655-1.957 9.395-.783-.391-.587 0-1.37 0v-.783c-.392.196-.588.392-.588.783-.391-.196-.587-.783-.783-1.174-.587.978-.783-.783-1.957-.587 0-.392-.391-.588-.196-1.37-1.174-.196-1.957-.98-2.936-1.566.587-.98.196-1.37-.587-1.37-.391-1.175.196-1.37.587-1.958.196-.587-.196-.587-.196-1.174 3.328-6.851 4.111-13.898 6.656-21.336.587-6.264 4.11-9.591 3.719-15.072 2.74-6.46 3.523-13.702 6.263-19.965-2.153-.196-8.025.195-8.612-1.566-2.545.979-3.328-1.566-5.48-1.762-1.371-1.761-3.524-2.74-4.307-4.893-.783-5.285-1.37-11.94 1.566-15.268.783.196 1.174 0 2.153.196-.587 1.761-1.175 2.74-2.349 4.11.391.588-.391.979.391 1.37 0 6.264 7.83 6.264 12.724 8.222 1.565-.588 3.131.391 4.697.391.196 0 .196-.196.392-.196 2.349-7.242 2.936-16.246 6.263-23.88 0-.391-.195-.587-.391-.783 1.762-7.046 1.957-17.616-.196-25.837-1.37-1.566-2.544-3.524-3.915-5.09-.391-.195-.587.196-.978.196-1.566-1.761-2.153-4.502-4.502-5.48v-.98c-.392-.39-.588.197-1.37 0-1.958-4.697-.196-8.807 2.348-11.94 7.83-6.067 17.03-11.94 26.817-15.267-.392 1.175-1.566 0-1.958 1.175h-.391c0 .391.391.195.391 0 2.35-.588 4.698-1.37 6.46-2.545-1.958 0-3.328 1.762-4.502 1.174 3.131-1.174 5.872-2.74 9.395-3.523 0 .392-.196.587-.196.783 6.851-1.566 12.528-3.915 18.791-5.285 11.353-2.349 23.88-4.306 35.625-4.11.195-.196.195-.196.195-.588 4.698.783 9.2 1.37 12.92 2.936-.392.392 0 .588.195 1.175.979-.587 2.74.196 1.762.587 0-.196-.196-.196-.588-.196zm-22.315-2.349c-.196 0 0-.783-.391-.783-5.872 1.175-12.528 1.37-18.595 2.937-2.154.587-3.72.195-5.285 1.37.391 0 .391-.392.783-.196-.392.783.782 1.566 1.565 1.762.392 0 1.175-.783 1.566-.196v.587c-2.544-.196-4.306 1.566-6.068.783-.195.979-1.957.392-2.348 1.175 3.131.195 5.48-1.175 8.612-1.566.196-.392.392-1.37 0-1.566s-.979.391-2.153.391c.196-.783-.392-.391-.587-1.174.978 0 2.153 0 2.544-.783.196.391.196.391 0 .783.588 0 .979 0 1.175.195 0-.587-.783-.587-.783-1.174.587 0 .783.196.979.196V4.97c.391.195.782.587 1.174.978-.783-.391 0 .979-.587.783h-.979c-.196.783.392.587.587.783 0 .392-.391.783-.587 1.175 1.37-.392 1.957-.196 3.523-.783 1.762-.392 3.72-.783 6.068-.588.196-1.761 2.153-.783 2.545-1.957.391.587.391 1.566 1.37 1.174V5.362c-.391-.391-1.174-.587-1.762-.587 0 1.174-1.957 1.37-2.544 1.174.783-.195-.196-1.174 0 0-.587-.195-.587-.783-1.175-.587-.391.979.979 0 .588.979-1.958-.392-2.154.195-3.915.195.196.98-.587.588-.979.98-.196-.392-.196 0 0 0 0 .195-.196.195-.196.39-.391-.587-1.37-.587-1.957-1.174.783-.196.783-1.174 1.174-1.566.588.588.98-.195 1.958 0 0 .196.196.392.391.392.783-.392.783-1.175 1.958-.587 0 .195-.196.195-.196.391.587 0 1.174 0 1.37-.391.587.195 1.566.391 1.762-.196-.392 0-1.566-.392-1.762.196-.783-.196-.391-.196-1.174 0-.392-.392-.196-.588.195-.783 2.35 0 4.307-.392 6.655-.392-.391-.196-.587-.391-.391-.587.979 0 .783.391 1.174-.196-.195.979.783.587.588 1.37.587-1.174 1.761-.978 2.936-1.174-.196 0 0-.196-.196-.392.196 0 .196.196.587.196 1.175.587 2.74.587 3.72-.196.586.783 1.957.392 2.152.98.196-.588.783-.784 1.175-1.175 4.698.783 10.374.783 14.093 2.153 0 .196.196-.196 0 0v-.392c-5.09-2.544-13.506-2.544-19.965-1.957-.196.196-.392.196-.392.391zm5.872.98c.196.195 0-.197 0 0zm-9.004 1.37c.196-.196 0-.392 0 0-1.174 0-1.761.587-2.349 1.174 2.545 0 3.328-.196 5.09-.196-.196-.783-.196-.587.195-.979.588-.195 1.37.392 1.175-.391.587.196.391.391.196 1.174.783-.195 1.174-.195 1.566-.587-.392 0-.783 0-.783-.196 1.174.196 1.565-.587 1.565-1.37-.587-.196-.195.783-.782.587-.196-.195-.392-.587-.98-.587-.195.196-.39.392-.782.392-.196-.392-.196 0 0 0v.587c-.392.391-.979-.392-1.175.391-.587 0-.978 0-.978-.783.783.196 1.37 0 1.566-.391-1.37-.392-2.153.587-2.35 1.566-.586-.196-1.37.783-1.76 0 .195-.196.586 0 .586-.392zm7.634-.392c.587.196 1.37-.587.783-.783 0 .587-1.174-.196-.783.783zm3.132.391c.587 0 1.174 0 1.37-.195 0-.392.196-1.175-.391-.98-.196.588-.783.588-.979 1.175zm-15.855-.978c-.196 0-.783 0-.783.195.196.392.783.392.783-.195zm18.204 0c-.196 0-.587 0-.587.195.195 0 .587 0 .587-.195zm2.544 0c-.195 0-.391 0-.391.195.196 0 .391 0 .391-.195zm-17.42.587v.391c.587.392.783-.783.195-.783 0 .196 0 .392-.195.392zm2.544 0c.196 0 0-.196 0 0zm6.264 1.174c1.174-.587 2.153-.195 2.74-.978-.978-.196-2.349 0-2.74.978zm8.221-.391c-1.174.783-2.936-.783-3.915.391 1.566.196 3.72 0 5.285.392.196-.979-.783-.392-.979-.979.783.196.98-.196 1.175-.587-1.175.587-1.566-.196-2.545.196.588 0 .783.391.979.587zm2.349-.783c-.196 0-.587 0-.587.196.195-.196.587 0 .587-.196zm-14.485 1.174c.196 0 0-.195 0 0zm7.83-.391c-1.566-.196-.587.783 0 0zm9.787 1.174c.195-.196.195-.196.587-.196-.196-.978-1.957-.782-2.936-.587.587.392 2.153.196 2.349.783zm-31.71-.587c-.587 0-1.174 0-1.566-.196-.196.979 1.175.392 1.566.196zm32.493 0c.195.196 0-.196 0 0zm-15.268.391c.391 0 .783.196.979-.195-.392-.392-.979-.392-.979.195zm11.94 0c.392-.587-1.174-.587-1.174-.195.391.195.587.391 1.174.195zM66.992 8.494c.783 0 .392 1.174.196 1.762a5.315 5.315 0 0 1 3.328-1.175c.195-1.37 2.348-.196 2.348-1.174-.195-.196-.782 0-.587-.588.783-.195 1.37 0 1.958.196 0-.783.978-.391.783-1.174-3.328.783-5.285.978-8.026 2.153zm17.03-1.958c.195.98.195-.978 0 0zm7.242.196h1.566c.196-.978-1.37-.196-1.566 0zm8.808-.196c-.783-.587-.979.98 0 0zm6.264-.195c-.196 0-.587 0-.587.195.195 0 .587 0 .587-.195zm2.936 0c-.783.195-2.153-.392-2.545.195.588 0 2.153.392 2.545-.195zm.783.195c.587.98.391-.782 0 0zm-15.072.783c.587.196 1.37-.391.783-.783 0 .588-.783.196-.783.783zm2.545-.195c.587 0 .978-.196 1.174-.588-.587 0-1.174 0-1.174.588zm3.523-.588c-.196 0-.392 0-.392.196.196 0 .392 0 .392-.196zm-4.11.588s-.196-.196 0 0zm21.335 0c.196 0-.196-.196 0 0zm-41.888.587c.196.979 1.174 0 0 0v-.587c-.587-.196-1.175.783-.587 1.174.195-.391.391-.391.587-.587zm7.242-.392c.196.196 0-.195 0 0zm9.396 0c-.392 0-.392-.391-1.175-.195-.196.587 1.37.587 1.175.195zm1.565-.195c-1.565-.392-.587.587 0 0zM28.236 88.943c-.391.782-.587 1.37-.196 2.153.588-.392.979-1.958.196-2.153.392-.98.783-.783 1.957-.588 3.915-12.723 9.396-23.88 13.898-36.016-.392 0-.979.196-.979-.195 1.175-5.677 6.46-9.2 7.243-16.051 1.174-.783 2.348-1.566 3.914-1.37 1.762 1.762 5.09.587 5.481 3.719-2.74 7.83-6.655 14.289-9.395 22.118-2.35 1.175-1.762 4.502-3.915 5.481.391.196.783-.783.783 0s-.783.783-.783 1.566c-.196 0-.196.196-.392.196-.195.195.196.391 0 0 .196.195.392 0 .392-.196.195 0 .391 0 .391.196-.391.783-.587.587-1.174.783-.196.587-.392 1.174-.392 1.957-.391 0 0 .196 0 0 .196.196.588 0 .588.392-.783.195-.588 1.174-.98 1.565-.195-.195-.39-.782-1.37-.587-.195.392-.195 1.37-.39 1.762.978.391 0-1.175.978-1.175.196.783-.392.588-.392 1.175h.588c-.392 1.174-.783 2.349-1.958 2.349.196.978 0 1.566-.587 1.761-.783-.195-.391.783-.783.98.587-.197 1.174-.197 1.174.39H40.96c.587.98-.979 1.175-.196 2.35-2.153 2.544-2.74 4.501-3.523 8.22-1.37.196-.783 2.545-1.957 3.132.978.783-.196.979-.588 1.762.392 0 .588-.392.588 0 .195.979-.783.587-.98 1.174.588 0 .784.196.784.783h-.979c.196.783.392 1.762-.391 2.153 0-.391 0-.782-.196-.782-.783 1.565.391 1.957-.979 2.74.783-.196.392.979 1.175.783 0-.392 0-.587.195-.783 2.545 1.174 5.677-.979 9.396-1.175.196 0 .196-.391.391-.391 13.506-2.545 27.795-8.221 40.714-13.898 1.37-1.174 3.132-2.153 5.48-2.544.197-.392.588-.783.784-1.175.391.196.587.196.978.196 18.596-12.919 35.038-28.773 38.561-55.198.783-13.506-10.178-19.574-22.706-19.378-1.957.391-3.523 0-5.48 0-1.37-.196-2.74.783-4.307.195-.587-.195-.391.588-1.174.392-.979-.392-1.958.196-2.936.587-.196-.391-.392-.587-.783-.587-2.545.783-6.068 1.566-8.613 1.174-.587.392-1.174.979-2.153.588 0 1.174-2.349.195-2.544 1.174-1.37-.587-2.545.979-4.698.587-9.2 2.545-18.595 5.48-27.012 9.591-.587-.391-1.37.392-2.153.392-3.328 2.349-7.438 3.915-11.353 5.872-2.936 2.545-6.655 4.306-9.787 6.655-.196.979-.979 1.566-1.37 2.153-.783.392-1.762.783-1.958 1.762 3.524 2.74 6.46 6.655 9.396 10.57-.196 1.174.587 3.132 1.174 4.11-.195.392-.391.392-.978.588 1.37 2.74 2.936 6.655.978 9.787.979 1.565-.587 1.761.196 3.131-.587-.195-.391-1.174-1.174-.978.195 1.37.978.978 1.174 1.761-.783 4.698 0 12.332-2.349 16.247.392 0 .783 0 .783.195-.196.392-.587.588-.391 1.566a1.495 1.495 0 0 0-.979-.391c0 .391-.391 1.37.196 1.174 0-.783.783-.587.978-.196-1.565.588-2.544 2.35-1.957 3.72zm93.367-80.645c.588 0 .98-.196.783-.783-.783.392-.783-.391-1.565-.391-.392.978.978.195.782 1.174zm-48.739-.587c.196.196 0 0 0 0zm2.154 0c-.783-.783-.783.979 0 0zm47.76.587c.783.587.587-.979 0 0zm-3.132.196c.196.196 0-.196 0 0zm-54.415.391c.195-.195 1.174.392 1.174-.195-.391-.392-.979-.196-1.174.195zm7.242.588c.587-.196.979-.392 1.174-.783-.587 0-1.174 0-1.174.783zm-8.808 0c.587-.196.783-.196.978-.588-.391 0-.783 0-.978.588zm7.634-.392c.195.392.195 0 0 0-.196-.196-.392 0 0 0zm53.436-.196s-.391 0-.391.196c.196 0 .391 0 .391-.196zm-57.743.588c0-.392-.391-.392-.391 0 .196-.196.391.195.391 0zm-4.893.391c.391 0 1.174.196.979-.391-.392 0-.783 0-.98.391zm3.132 0c.391-.196 1.37.392 1.174-.391h-1.174v.391zm59.896-.196c0 .196-.196-.195 0 0zm-62.245.588v.782c.783-.391.391-.587.783.196 0-.978.587-.978.978-1.37-.391 0-.391-.196-.978-.196.195.588-.196.783-.783.588zm5.872 0c.587-.588-.783-.588-.783-.196zm-8.808 1.174h-.392v.587c.392 0 .392-.196.392-.587 1.174.196 1.761-.783 2.153 0 .196-.196.196-.392.196-.783-.783.196-.98-1.174-1.37-.391.195.195.39.195.39.587-.195.391-1.37 0-1.37.587zm6.068-.587c.391 0 .978 0 .783-.587h-.392c0 .391-.196.391-.391.587zm1.174.391c1.566 0 2.74-.196 3.132-.587-.979-.783-2.153.391-3.132.587zm-17.812.587c.979.196 2.74-.783 3.719-1.174-1.37 0-2.545.391-3.72 1.174zm16.246.196c.587 0 .979-.196.979-.587-.392.196-1.175-.196-.979.587zm-7.438.196h.392v-.392h-.392v.392zm-8.808-.196c-.196 0-.392 0-.392.196.196 0 .392 0 .392-.196zm8.025.196c-.196 0-.391 0-.391.196.195 0 .391 0 .391-.196zm4.698.783c.587 0 1.566-.392.979-.783 0 .391-.98 0-.98.783zm-6.264 0c.196.196.979.196.783-.587-.391 0-.783 0-.783.587zm-2.936.783c.783-.196 1.958 0 1.958-1.175-.588.392-1.566.588-1.958 1.175zm7.634-.392c.391-.195 1.37.392 1.174-.391-.391 0-.978 0-1.174.391zm-9.787 1.175h.587v-.392h-.587v.392zm-.587 0c.196.196-.196-.196 0 0zm-.979.391c.392 0 .587-.195.783-.391-.391 0-.587.196-.783.391zm-9.2.783c.196.196 0-.196 0 0zm-1.174.392c-.196 0-.196.195-.196.391-.391 0 0 .196 0 0 .196 0 .196-.196.196-.391 1.37.391.391-.588 0 0zm-2.349 1.174c.196.196 0 0 0 0zm93.563 21.531c-.196-.587 0-.978.196-1.174-.587-.196-.979 1.174-.196 1.174zm-1.957 5.09c-.196.978.783 0 0 0-.196-.392-.196 0 0 0zm-1.175 1.566c.392.978.392-.783 0 0zm.783.391h-.195c-.196.196-.392.587 0 .587 0-.196.195-.391.195-.587.588-.196-.195-.979 0 0zM30.39 51.36c.196.98.196-.782 0 0zm88.474 8.222c.196.195 0 0 0 0zm-.783 1.761c0 .196-.196-.195 0 0zm-1.174 1.37c0 .196-.196-.195 0 0zm-2.74 1.958c.195 0 0-.196 0 0zm-1.762 3.719c-.392 0 0 .196 0 0 .391-.196 0-.392 0 0zm-4.307 1.566c.392 0 .588-.196.783-.392-.391 0-.587.196-.783.392zm-63.81 1.762h.391c.392-.588-.783-.783-.587-.392 0 0 .196.196.196.392zm62.636 0c-.979-.392 0 .587 0 0 1.174 0 .196-.98 0 0zm2.936-.392c0 .196-.196 0 0 0zm-3.327.979c0-.196-.392-.196-.588 0 .392 0 .392.391.588 0zm-1.37.978c.39 0 .587-.195.587-.391-.392 0-.783-.196-.588.391zm-.98.783h.588c0-.391.196-.978-.196-.978 0 .391-.587.195-.391.978zm2.545.196c.392 0 .783 0 .783-.587h-.587c0 .391-.196.391-.196.587zm-1.566 0c.196.783.588-.979 0 0zm.588 0c.195.196 0-.196 0 0zm-2.74.979c-.392 0 0 .196 0 0 .978.196-.196-1.175 0 0zm1.37 0c0-.392-.392-.392-.392 0 .196-.196.391.196.391 0zm-3.328 1.566c1.174-.196.196-.979 1.37-1.175-.587-.587-1.37.392-1.37 1.175zm2.349-1.175c.195.196 0-.195 0 0zm-1.175 1.566c.588.196 1.175-1.37.196-1.174.196.783-.196.587-.196 1.174zm-1.761 0c-.588-.391-.783.783-.392.783 0-.587.783-.196.783-.783-.391 0-.196-.391 0-.587-.196 0-.587 0-.783.196.196 0 .392.195.392.391zm1.957.979c.783.196 1.566-.783.979-1.175 0 .783-.979.392-.979 1.175zm-4.306.587c-.392 0 0 .196 0 0 .587 0 1.566 0 1.37-.783-.587 0-.587-.196-.979-.196-.195.392-.391.588-.391.98zm2.349 0c.587 0 .391-.587 1.174-.391.196-.98-1.566-.783-1.174.391zm1.566 0c.195 0 0-.196 0 0zm-2.545.392c-.783-.196-.979.195-1.174.783-.392 0-.392-.392-.783-.392v.783c.391 0 .587-.196.783-.391.782 0 .978-.392 1.174-.783.391-.196 0-.392 0 0zm-3.523 1.174c.195.196-.196-.196 0 0zm-.196.196c-.196 0-.587 0-.587.196.195 0 .587 0 .587-.196zm-.783 1.174c.783.392-.783.392-.783.979 1.37.196 1.37-1.175 2.153-.783 0-.783.783-.783.979-1.37h-1.175c.588 1.37-.783.783-1.174 1.174zm-57.939-.587s-.195-.196 0 0zm57.547.783c.196-.587-.587-1.37-.782-.587.587-.196.195.587.782.587zm3.524-.392c.391-1.174-.587 1.175 0 0zm-58.33.392c.195.196 0 0 0 0zm50.5.783c.196.196 0-.196 0 0zm2.545.783c-1.566.391-2.545 1.566-3.523 2.544 1.565.392 2.153-1.761 3.719-1.957.195-.391-.196-.391-.196-.587h.587c-.196-.196 0-.392.196-.392v-.391c-.196 0-.196-.196-.196-.196h-.587c0 .196 0 .196-.196.196 0 .391.196.391.196.783zM51.529 99.904c.391-.783-1.174-.392-.979.196h.587c-6.459.195-13.31 3.131-19.965 4.11.392.783.392.587 0 1.566.392.392 1.566.196 1.37-.783.392 0 .196.783.587.783 4.698-.587 8.809-2.74 12.92-2.74.195-.392 0-.783.39-.783 0 .978 1.175-.587 2.35 0 0-.196.195-.392.195-.587 4.11-.196 6.46-2.35 9.787-2.35.392-1.174 3.524-1.565 5.285-1.761 0-.587-.391-.783 0-.783 1.958 0 3.328-.587 4.894-1.957 0 .195-.196.391-.196.587-.392 0 0 .196 0 0 5.285-2.545 10.57-4.306 14.876-7.047 1.958-.978 3.72-2.153 5.48-3.132-.195-.195-.586-.195-.782-.391.979-.196.783-.783 1.174 0 .196-.391.783-1.174.392-1.37-11.549 6.85-24.86 12.136-37.974 15.659-.391.391.588.783-.391.783zM37.24 84.049c.196.196-.196 0 0 0zm56.764.587c-.195 0-.587-.195-.587.196.196 0 .587 0 .587-.196zm-1.174.587c.196.196 0 0 0 0zm-3.915 1.37c-.587.784.783-.587 0 0zm-53.045.98c0-.196-.392-.196-.587 0 .391 0 .391.39.587 0zm51.283.195a.421.421 0 0 0-.391.392c-.587-.196-.783.195-.783.587.587 0 .783-.196.783-.587a.421.421 0 0 0 .391-.392c.588.392 1.175-.391.588-.391 0 .195-.588.195-.588.391zm0 .979c.196.196 0 0 0 0zm-2.74.783c.196.195 0-.196 0 0zm-52.066.195c-.392.196 0 .196 0 0 .195-.195 0-.391 0 0zm53.436 0c.392.783.587-.978 0 0zm-.195.196c-.196 0-.392 0-.392.196.196 0 .392 0 .392-.196zm-53.829 1.175c-.195 0-.195.391-.195.587-.392 0 0 .196 0 0 .195 0 .195-.392.195-.587.783-.196-.195-1.175 0 0zm3.524-.196c.195.196 0-.196 0 0zm50.5.783c.587.196 1.175-.783.587-.783 0 .783-.782-.587-.782.196.195 0 .195.195.195.587zm-5.676.196h.587v-.588h-.587v.588zm1.566-.196c-.196 1.37 0-.979 0 0zm-54.611.587c-.392 1.37.391 1.566-.196 2.936 1.174-.979.979-1.957 1.37-3.327-.783-.196-.587 1.566-1.174.391zm54.22-.391s-.392 0-.392.195c.196 0 .391 0 .391-.195zm3.131.978c.196-.587-.587-1.566-.979-.783.588 0 .196.979.98.783zm-53.632 0c.391.783.391-.978 0 0zm46.781.196c.392.783.587-.979 0 0zm1.762.196c.587-.587-.783-.587-.783-.196 0 0 .783 0 .783.196zm-.783.978c.783.392.783-1.174 0-.782v.782zm-3.523 0c.195.196 0-.195 0 0zm2.153 0c.195.783.195-.978 0 0zM32.542 95.99c-.783.392.783.783 0 0 .196-.391.783-1.566 0-1.762-.587.783-.391.98 0 1.762zm41.497-1.566c.587.979.391-.783 0 0zm-3.72 1.566c.588.979.392-.783 0 0zm.784 0c0 .196-.196 0 0 0zm-38.17.587c.392.783.588-.978 0 0zm38.366.392c.195 0 .195.196.391.196 0-.196.196-.196.196-.392-.196 0-.196-.196-.392-.196 0 .196-.195.196-.195.392zm-3.524.587c.587 0 1.175 0 1.175-.783-.588 0-.783.392-1.175.783zm-35.428 1.174c.587 0 .782-1.174.391-1.174 0 .392-.587.587-.391 1.174zm33.667-.391c.195-.391.783 0 .783-.587-.588-.392-1.37.391-.783.587zm-1.566-.196c0 .196 0 .587.195.587 0-.391.392-.391.588-.587-.392 0-.392-.195-.783 0zm3.132.587c.587.196.587-1.174 0-.782v.782zm-35.82 1.175c0 1.762.587-.783 0 0zm28.381.196c.196.195 0-.196 0 0zm-29.556.391c.196.196 0 0 0 0zm28.186.587c.196 0 0-.195 0 0zm1.37 0c-.195 0-.587-.195-.587.196.196 0 .587 0 .587-.196zm1.175 0s-.392 0-.392.196c.196-.196.392 0 .392-.196zm-2.349.392s-.391 0-.391.196c.195 0 .391 0 .391-.196zm-52.85 1.174c.196.196 0-.195 0 0zm44.433 0c.196.196 0-.195 0 0zm-.978 0s-.392 0-.392.196c.196 0 .392 0 .392-.196zm-41.693.783c.196 0-.196-.196 0 0zm38.952.783c.392 0 .587.196.783.392.196-.588-.196-.783.392-1.175-.783-.783-.979.392-1.175.783zm13.31-.783c.196 0 0-.196 0 0zm-45.802.392c-1.175.391-.98-.196-2.545-.196-.196.979 2.153.979 2.545.196zm1.174.195c-.196 0-.196-.195-.587-.195-.392.587.783.587.587.195zm29.36.196v.392c.197 0 .98.587.98 0-.196 0-.196-.392-.196-.588-.392 0-.392.196-.783.196v-.391h-.587c-.196.587.391.391.587.391zm-28.773 0c.196.979.196-.783 0 0zm2.545-.196c-.196 0-.587 0-.783.196.391 0 .783.196.783-.196zm24.859 1.175c.195-.587 0-.783-.392-.979 0 .392-.196 1.175.392.979zm3.719 0c.195-.392 0-.587-.392-.587.196.391-.978-.196-.783.587.587.391.979-.587.979 0 .391.979-.587.783-.392 1.37 1.37.587 1.37-.196 2.545-.196-.196-.783.392-.587.392-.978-.392.195.195-.98-.588-.588-.587-.195.196.98-.587.98-.391-.197.196-1.371-.391-1.567-.196.587.195.783-.783.979zm-4.894-.392c-.196-.195-.391-.391-.978-.195 0 .783.978.783.978.195zm-3.523 1.175c-.392 0 0 .196 0 0h.196c.195-.196.391-.587.391-.979-.783-.196-.391.587-.587.979zm4.893.979c.392-.98-.978-.196-.783-.783 0-.392.392-.196.392-.392-.392-.391-1.762 0-2.153.587.391.196 1.566.783 2.153 1.175.391-.979 1.174 0 2.153-.196-.196-.783.979-.196.979-.979-1.175 0-.587-1.37-1.762-1.37-.587.196-.196 1.762-.979 1.958zm-14.093-1.566c.196.195 0 0 0 0zm-.587.783c-.391 0-.391-.392-.783-.392-.196.392.587.979.783.392zm8.808-.196c.196.196 0-.196 0 0zm-8.22.196c.195.195 0-.196 0 0zm6.263 1.37c-.783.587-1.958.783-3.328.783.392.978-.783.391-.978.978.783 0-.392.196-.196.588 1.37-.392 1.566-.392 2.544-1.175.392.979 1.566-.391 1.566.783 1.37 0 1.37-.783 2.936-.783-.391-1.174.98-1.566 0-1.761 0 .391-.587 0-.783.391.392.196-.587.196 0 .979-.587-.392-1.174.587-1.565 0 .195-.392.978-.392.587-1.175-.392-.195-.392.196-.587.392 0-.587 0-1.175.195-1.37-.391 0-.391.391-.783.391a.421.421 0 0 0-.391-.391c-.196.783.783.587.783 1.37zm1.174-.979h.392v-.391h-.392v.391zm-11.548 0c-.392.196 0 .392 0 0 .391 0 0-.196 0 0zm8.808 0c-.979-.196.391 1.174 0 0 .391 0 0-.196 0 0zm-16.834.392c.196 0 0-.196 0 0zm.98 0c-.98-.392 0 .587 0 0 .782.195.586-.196 1.174.195.391-.783-1.175-.587-1.175-.195zm14.484.782c-.196-.391 0-1.174-.587-1.174 0 .587.195 1.174.587 1.174zm6.85-.587c.196.196 0-.195 0 0zm-25.054.392c0 .195-.196 0 0 0zm-5.872 1.761c.196 0 .391.392.587.392.392-.392 0-.783-.391-.979 0 .196-.196.392-.196.587zm-.392-.391c0 .196-.391 0-.391.391.196-.195.391 0 .391-.391zm21.923.391c-.196-.195-.979-.587-.979 0 .196 0 .98.588.98 0zm-19.182.196c-.587.783.783-.587 0 0zm13.31 0c.196.196 0-.196 0 0zm-9.2 1.175c.783.391 2.35.195 2.35-.588.39.392.39.588 0 .979.978.392 1.957-.391 1.174-.979-.392.783-.588-.783-1.175-.587-.587.783-1.566.979-2.349 1.175zm14.68-.588c.392.783 1.37-.391.784-.587 0 .392-.98 0-.783.587zm-17.224.588c.587-.783 2.153.195 2.544-.98-1.174.784-1.957-.195-2.936.197.587 0 .783.391.392.783zm6.655-.783c0 .195-.196 0 0 0zm9.591.195c.391.783.587-.783 0 0zm3.915 0c.391.979.391-.783 0 0zm1.37 0c0 .196-.392 0-.392.392.196-.196.392 0 .392-.392zm-22.51.979c.196-.587-.392-.391-.587-.587-.196.391.195.587.587.587zm18.987-.196c.195.196 0-.195 0 0zm-2.35 1.566c.588.196 1.958-.978.784-1.174.195.783-.587.783-.783 1.174zm-1.174-.196c.196.196 0 0 0 0zm-1.566 4.502c.196.196 0-.195 0 0zm-4.697 2.35c0-.196.587-.98 0-.98.195.392-.783.784 0 .98zM20.015 123c-.196-.391.783-.783 0-.783 0 0-.587.783 0 .783zm-.587 1.175v.391c-1.175 1.174.978-.587 0-.391zm-.392 1.565c.196 0 0-.195 0 0zM116.123 1.643c.196.196 0-.196 0 0zm-29.165 0c-.783.979-1.762.391-2.936.783.587-1.174 1.761-.392 2.936-.783zm-6.264 1.174c.392-.587 1.566-.195 2.153-.783.587.783-1.37.783-2.153.783zm24.467 0c0 .196-.195-.195 0 0zm-24.467 0c-.391.196 0 .196 0 0zm2.936.196c.196.196 0 0 0 0zm15.66 0c0-.587.978.196 0 0zm.782-.196v.196c.392 0 .196-.196 0-.196zm-21.335.196c0 .392-.392.587-.979.587-.196-.783.587-.587.979-.587zm17.225.196c.195.196-.196 0 0 0zm.587 0c.196.196 0 0 0 0zm-19.183 0c-.391 1.174-2.348.391-3.131 1.174-.392-.783 1.957-.978 3.131-1.174zm16.247.587c.196.196-.196-.196 0 0zm-21.923.979c.392-.392 1.174-.587 1.957-.587-.391.391-1.174.587-1.957.587zm13.115 0c0-.392.391-.196.587-.392 0 .392-.392.196-.587.392zm-13.115 0c-.783.391-1.762.587-2.74.587.391-.587 1.37-.587 2.74-.587zm11.744.391c-.195 0-.391 0-.391-.195.196 0 .391 0 .391.195zm1.958 0c0-.195 0-.195.196-.195 0 0 0 .195-.196.195zm-16.442.196c0 .392-.588.196-.979.196 0-.392.587-.392.979-.196zm3.327 0c-.978.196-.195-.587 0 0zm26.23 0c.195.196 0 0 0 0zm-5.09.196c0 .196-.196 0 0 0zm-26.425.391c-.783.783-2.74.392-3.523 1.37-.783-1.37 3.132-1.37 3.523-1.37zm.979-.391c-.196.783-1.174-.196 0 0zm27.795.391s-.196-.195 0 0zm-8.221.783c.196-.783.196.979 0 0zm-25.055.392c0-.392.392-.196 0 0zm0 0c-1.761.978-4.697 1.957-7.633 2.544 2.153-1.174 4.697-2.153 7.633-2.544zm18.791.391c0-.196.196-.196.392 0h-.392zm1.175.196c.391-.979.391.979 0 0zm-12.136.587c.196-.196.391 0 .391-.391 0 .195-.391 0-.391.391zm-1.37.196c0 .391-.392.391-.979.391v-.587c.391 0 .391.196.979.196zm0 0c0-.392.391-.196 0 0zm.587 0c.196.196 0-.196 0 0zm-14.876.979c-.196.195-.392.391-.783.391.196-.391.391-.587.783-.391zm77.904 19.182c.196-.979.196.979 0 0zm0 .979c.196.195 0-.196 0 0zm-1.175 10.57c-.195-2.74.98-6.264 1.175-9.592.783 3.328-.587 5.873-.979 9.592h-.196zm0 0c-.195 1.565 0 2.544-.978 2.936.391-1.37 0-2.35.978-2.936zm-1.566 5.676c-.195-.979-.391-2.349.783-2.349-.195.783-.391 1.566-.783 2.349zm0 0c0 .587 0 .979-.587 1.174 0-.587-.587-1.565.587-1.174zm-.587 1.174c.196 1.175-.391 1.762-.978 2.545-.783-.391.587-2.153.978-2.545zm-1.566 2.937c.392-.196 0-.196 0 0zm0 0c0 .195 0 .587.196.587-.196.783-.979-.587-.196-.587zm-.195 1.37c0 .195-.196 0 0 0zm-.783.391c.587 0 0 .783 0 .783-.588 0 0-.783 0-.783zm0 1.37c.587.783-.588 2.74-1.566 2.153.391-.978 1.174-1.37 1.566-2.153zm-2.35 1.566c.197-.978.197.979 0 0zm1.175 1.175c-.391 1.37-1.566 3.327-2.349 3.523-.391-.587 1.37-2.936 2.35-3.523zm-2.74 4.697c.196-.195 0-.195 0 0zm0 0c0 .392-.392.196 0 0zm-.783.98c0-.392.391-.197 0 0zm0 0c0 .782-.392.978-.783 1.37-.391-.392.391-1.175.783-1.37zm-2.74 3.718c.783.196.195.979-.588.979 0-.392.783-.392.588-.979zm-1.175 1.958c0 .195-.196-.196 0 0zm-1.174 1.565c.195-.391.391-1.174 1.174-1.174-.391.587-.391 1.174-1.174 1.174zm-90.236-.587c.196-.978.196.783 0 0zm89.844.783c.196 0 .196-.196.392-.196 0 .196-.196.392-.392.196zm0 0c-.195.196.196.392 0 0zm-1.37.587c.196.196 0-.195 0 0zm-69.487.196c.196.196 0-.196 0 0zm70.466 0c0-.391.391-.196 0 0zm0 0c-.979 1.762-1.958 3.523-4.306 3.915 1.174-.783 2.544-1.37 2.74-3.132.783.783.783-.783 1.566-.783zm-3.915 2.349c.196-.979.196.979 0 0zm-1.174.196h.195c0 .195-.195.391-.195 0zm-.392.783c.392-.783.587.783 0 0zm-.587 0c.196.195.196 0 0 0zm-65.768.587h.195c0-.196-.195 0-.195 0zm65.964.391c.195-.195.391 0 .391-.391 0 .196-.391 0-.391.391zm-.98 0c.392.196.588.588.197.783-.392 0-.392-.587-.196-.783zm1.958.196c.196-.979.196.783 0 0zm.588-.196c.587 1.175-1.958 3.132-3.915 3.524 0-.979.783-.783 1.37-.979-.587-1.174.783-.979.979-1.957.783.391 1.566.391 1.566-.588zm-4.111 1.37c.196 0 .196.392 0 .392v-.391zm0 3.328v-.391c.587-.196.587-.98 1.37-.783-.391.391-.587.978-1.37 1.174zm-65.964-.979v.392c.196 0 .196-.392 0-.392zm63.615.196c.196.196-.196-.196 0 0zm2.349.392c-.783 0-.979.391-1.37.783-.783-.588.783-.98 1.37-1.175v.392zm-.196.587c0-.196 0-.392.196-.196 0 0 0 .196-.196.196zm0 0c-.391 0 0 .196 0 0zm-1.957.391c.391-.195 0-.195 0 0zm0 0c0 .392-.392.196 0 0zm-2.545.783c0-.391.392-.195.392 0s-.196 0-.392 0zm1.566-.195c.587 0 .587.195.196.587h-.392c.196-.196.196-.392.196-.587zm1.175.195s.587-.587.783-.195c.391.195-1.566.978-.783.195zm-64.007.588c-.391-1.175.587-.196 0 0zm60.483 0c0-.196.392-.196.588-.196 0 .196-.392.196-.588.196zm1.762 0c.196-.783.196.978 0 0zm-62.245 0c0 .391 0 .978-.587.782v-.391c.196-.196.391-.196.196-.391h.391zm63.81.391c0 .391-.978 0-.978.587-.587-.391.587-1.37.979-.587zm-1.565.391c.587.196-.196.98-.783.98 0-.588.587-.588.783-.98zm-1.762 1.566c.392 0 0-.195 0 0zm0 0c-.587.392-.783 1.762-1.566 1.175.588-.392.783-1.175 1.566-1.175zm-2.544.783c.195.196 0-.195 0 0zm-1.958 0c.588-.195.392.979-.195.783v-.587c.195 0 .195 0 .195-.196zm2.936.392c-.195.391-.391.587-.783.587.196-.391.392-.587.783-.587zm-4.11.391h.783c-.392.587-.783 1.175-1.958 1.175.196-.783.98-.392.98-.979.195 0 .39 0 .195-.196zm-9.396 1.175c0-.392.392-.196.588-.392 0 .392-.392.196-.588.392zm10.57.195c-.587 0 .392-.978 0 0zm0 0c.588 0 .588-.391.979-.195 0 .978-.783 1.174-1.566 1.37-.196-.392-.196-.587-.587-.783-.196 0-.196.196-.392.196 0 .391.588.391.783.587-.195.587-.391.196-.978.196 0-.196 0-.588-.196-.783.196-.588.783-.588 1.566-.588 0 .196 0 .392.196.392s.391-.196.195-.392zm-68.704.196c.196.196.391.196.587.196 0 .391-.391.391-.391.783-.392-.196-.196-.587-.196-.979zm56.96.196c0-.196.391-.196.587-.196 0 .196-.391.196-.587.196zm9.004.783c0-.196.391-.196.391-.196 0 .196-.195 0-.391.196zm-2.153.391c.196.196 0 0 0 0zm-89.649 0h.392v.588c-.196-.196-.196 0-.196.195h-.391v-.587c.195.196.195 0 .195-.196zm80.45.783v-.195c-.197 0 0 .195 0 .195zm11.352-.195h.391v.391h-.391v-.391zm-.392.587c-.195.587-.782.783-1.565.783 0-.979.783-.783 1.565-.783zm-2.153.196c.392 0 .392.391.392.782-.196 0-.196-.195-.392-.195v-.587zm-55.002.782c.195-.978.195.98 0 0zm52.458.196c.196-.978.196.979 0 0zm2.544 0c0 .392-.783.196-.783.587-.783-.391.196-.783.783-.587zm-3.131 1.762c.587-.979.391.783 0 0zm-.588.196c.196-.98.196.783 0 0zm-52.262 0c.196 0 .392.195.587 0 .587 0 0 1.174-.587.978v-.978zm46.586 2.936c-.196-.392.979-.196.587.391h-.391c0-.196 0-.391-.196-.391zm-1.762 0c.783.783.783.391 1.566 0-.391.978-1.37 1.566-2.349 1.761 0-.783.588-1.174.783-1.761zm-4.893 1.174c.391 0 .783.196.783-.196 1.174.196 1.566-1.174 2.544-.391-.587.979-3.131.587-3.719 2.153-1.174-.196-1.761.587-2.936.587.587-1.37 2.936-.783 3.328-2.153zm3.327.587c.196-.978.196.783 0 0zm-3.131 1.37c.195-.782.978.196 0 0zm0 0c-.196.392-.98.98-1.37.392.39-.196.782-.391 1.37-.391zm-42.28.392c.391 0 .587.196.587.587-.196 0-.196 0-.196.196-.391 0-.195-.392-.391-.783zm36.407.587v.587c-.391 0-1.174.392-.783-.391.196-.196.392-.196.783-.196zm2.35.196c.39 0 .586.196.586.783-.783.196-.783-.392-.587-.783zm-7.439 1.957c.783-.391 1.958-1.37 3.72-1.566-.588 1.175-2.154.783-2.741 1.566-.196.588 1.37-.391.979.588-1.175.195-1.175-.588-1.958-.588zm6.655-1.174c0-.392.392-.392.392 0 0 .196-.196-.196-.392 0zm-21.14.196c.196 0 .392-.196.392-.196-.196-.196-.392 0-.392.196zm-2.153.391c.196.196-.195 0 0 0zm20.944.196c.588-.783.196.783 0 0zm-4.306.391c0 .392-.196.392-.783.392.196-.392.392-.587.783-.392zm2.153.196c.196.196-.195-.196 0 0zm-6.068 1.762c.588-.392-.783-.587 0-1.175.98.783 1.37-.783 2.74-.587 0 .979-.978.392-.39 1.37-.98 0-1.37.587-2.35.392zm-12.723-1.37c-.391 0-.195-.392 0 0zm-1.761.195c0-.195.391-.195.587-.195 0 .195-.392.195-.587.195zm17.225.588c.195.195 0-.196 0 0zm.978 0c.196.195-.195-.196 0 0zm-28.969 1.174c.587-.979.392.783 0 0zm4.894 0c.195.196 0-.196 0 0zm-5.09 0a1.495 1.495 0 0 1-.978.391c.195-.391.391-.587.978-.391zm3.328.196c.196.195-.196-.196 0 0zm-.979.195c0-.195.392-.195.392-.195 0 .195-.196.195-.392.195zm-4.698.196c.196.196 0 0 0 0zm21.532 0c.391-.783.391.979 0 0zm-4.11 0c0 .196 0 .392.195.392 0 .391-.392.391-.979.391-.195-.587.587-.391.783-.783zm-18.792.783c-.391 0-.195-.391 0 0zm20.161 1.175c0-.392.196-.588.196-.98-.196 0-.587.197-.391.588-.783-1.566 2.153-.783 2.74-.783-.196.979-1.566-.196-1.37.783-.196-.196-.196-.196-.196-.587-.979.196.392 1.174-.979.979zm-7.83-.783c.392.195.197.783.588.783-.391.783-.783-.196-.587-.783zm2.937.391c.196-.979.196.783 0 0zm-6.655 1.566c.587.196 1.37.391 1.174 1.37-.978-.587-1.761-.391-2.936 0-.196-1.174 2.153 0 1.762-1.37zm3.132 1.957c.195 0-.196-.195 0 0zm-6.46.588c.196.195 0 0 0 0zM26.083 121.63c.196.196 0 0 0 0zm134.277 20.944h.391c0-.391-.391 0-.391 0-.392.196-.587.391-.783.783s1.174-.196.978.391c-.782 1.175-3.523 1.762-3.131 3.72-.783-.196-.979.195-1.37.195 0 .979-.392 1.175-.588 1.958-.978.195.196-.783-.391-.783-.979.587-.979 2.153-2.74 1.957-.392.391.39.783-.392.979v-.196c-.196 0-.196.196 0 .196-.587 1.174-1.174 1.174-2.545 1.37 0 1.566-1.957 1.566-2.74 1.957-.587 0-.587-.391-.587-.978-.196.587-.783.587-1.175.783.196.978.98-.196 1.37.391-.195.587-1.174 1.174-1.565.783 0 .391-.196.783.391.783-2.74 1.174-4.11 2.349-7.242 3.327-.587.392-1.37 1.566-2.35.98-4.305 2.935-10.96 3.914-16.441 4.11-7.438-1.37-9.591-9.592-7.83-17.813 3.132-10.765 13.31-15.071 21.923-20.552 4.11-1.566 8.613-3.72 12.919-4.11-.196.978 0 1.174 1.174.978-.783.783-1.761 1.37-2.153 2.74-3.719.588-6.655 2.35-9.004 4.502.392.98.979-.587 1.958.196.782 0 1.174-1.174.391-1.37.783-.392 1.174-1.762 2.153-1.37-.196.978-1.174.978-1.174 1.957.195.392.391-.196.978 0-.783.587-1.37 1.37-2.544 1.762.391.783.978-.392 1.566-.196-.196 1.37-1.566 1.175-2.74 1.566-1.37 2.545-5.286 2.936-6.656 5.48-1.37 0-1.761.98-2.74 1.175.196.783-.783.587-.783 1.37-4.894 2.936-8.613 7.047-11.549 12.136.392.196.196.783.196 1.175 3.72 3.914 13.115.782 17.225-.196-.391.783.783-.392 0 0 0-.392.392-.392.392-.783.783.196 0 .587.391.979 1.566-1.175 4.502-2.74 6.46-3.132 1.565-1.175 3.718-2.545 5.48-3.132 5.09-3.72 9.787-8.221 14.29-12.527 1.37-2.35 2.152-4.502 4.11-5.873 1.957-3.914 3.131-6.85 3.131-12.135-.783-6.851-5.285-9.983-8.025-14.485-.196-.392-.587.196-.783-.196-3.915-4.502-8.808-7.634-13.702-10.961-.391-.196-.587-.979-1.174-1.175-.196-.391-1.174-.195-1.762-.783-.195 0-.195-.391-.391-.587-1.175-.978-2.545-1.37-4.11-1.957-3.915-2.74-8.417-5.677-12.724-8.025-3.131-2.937-7.438-4.698-9.2-8.809-1.761-1.174-2.935-3.327-3.523-5.089-3.327-10.766 3.72-19.574 9.592-24.663 0-.391.195-.783.391-1.174 1.37-.196 1.37-1.566 2.936-1.566.587-1.37 2.545-2.74 4.502-3.524.783 0-.196-.391 0-.783 2.74-1.174 4.698-3.523 7.83-4.306.391-1.174 2.544-2.153 3.327-1.957 6.264-4.894 14.485-8.026 21.923-11.94.391 0 .196-.392.391-.392 7.83-3.132 15.464-6.46 23.88-9.004.196 0 0-.391 0-.783 3.328.196 6.264-1.761 9.2-1.957 5.285-2.349 16.638-4.894 23.097-1.958.392.588.98.783.98 1.566 1.957.392 1.957 2.74 3.327 4.11 1.761 2.154 3.132 5.677 1.957 8.222-.391.391-.783 1.174-1.174 1.37-2.153.392-3.524 1.762-5.09 2.936 0-.391-.783-.196-1.37-.196.979-2.936 2.153-4.893 2.35-9.004-12.528-2.74-22.315 1.958-32.885 3.915-1.37 1.175-3.719 1.37-4.893 2.35-.588 0-.588-.392-.98-.392v.783c-3.131.587-6.654 2.153-9.199 3.131 0 .392-1.174 0-1.566.196-2.153 2.936-6.85 1.958-8.808 4.698-.196 0-.196-.196-.196-.587-.391 0-.196.978-.783 1.174-1.957-.391-2.153 1.175-3.132 1.37-.783.587-1.565.196-2.153.587-1.566.588-2.544 2.154-4.306 2.154-.196 1.37-3.132 1.957-4.698 3.131-.978.98-2.74 1.762-4.502 2.154-.587.195.196.391 0 .978-6.459 2.153-9.787 6.264-15.267 9.396 0 .195 0 .587.195.391 0 .587-.391.587-.783.196-2.544 1.957-4.306 4.306-6.655 6.264-.195.587.196.587.196.978-2.74 2.153-5.285 5.285-4.306 9.983.587 1.37 1.566 1.957 1.957 3.328 4.307 2.153 6.851 5.872 11.549 7.438.783.978 1.37 1.761 2.544 1.957v.587c1.37 0 .98.392 2.154.587.195.392.391.783.391 1.175 3.328.196 5.872 3.719 9.591 4.893 3.328 3.72 9.004 5.872 12.332 10.374 6.85 5.285 11.744 12.528 14.289 21.923-.783-.391-.196-2.349-.979-2.936.979 4.698.979 10.766.979 16.05-.979 3.72-2.936 5.286-3.524 8.222-.391 0-.783.196-.978.391-.392 1.958-2.74 2.545-2.74 4.502-.784.196-1.37 1.37-1.762.196zm16.638-130.362c0-.196-.588-.196-.588 0 .196 0 .392.391.588 0zm-2.937.783c-.195.196-.587 0-.587.196.196 0 .587 0 .587-.196zm-3.327 1.174c-.392.196 0 .392 0 0 .391-.195.783.783.783 0 0 0-.783-.195-.783 0zm-2.936 1.566c.783-.391 1.37 0 1.566-.783-.587 0-1.566-.195-1.566.783zm-1.762.392s-.196-.196-.391-.196c-.392.587.587.783.391.196zm-1.957.978h.587v-.391h-.587v.391zm-1.37.588c.783 0 1.37 0 1.174-.588-.587 0-.979.196-1.174.588zm-2.936.978c-.196.979-1.762.783-2.154 1.566.196 0 .196.392.588.392.391-1.175 3.914-1.175 2.74-2.35.196.588-.783.784-1.174.392zm-2.545 1.762c0 .196-.196 0 0 0zm-.392 0c-.195.196-.391 0-.391.196.196 0 .391 0 .391-.196zm12.528.196c.195 0 0 0 0 0zm-13.898 0c.392 1.174 1.37 0 0 0zm5.285.587c0 .196-.196 0 0 0zm-8.22.587c-.197.979.978.587 1.76.587-.586-.587.197-.978-.586-1.174 0 .587-.588.587-1.175.587zm2.152-.196zm.979 1.566c.391.392.391-.978.196-.978 0 .391-.196.391-.196.978zm-1.566.783c0-.391.587 0 .587-.587-.195-.196-1.37.391-.587.587zm7.634.392c.783.195.587-.392.979-.783-.588.195-.98.391-.98.783zm-13.898.391c.783.196 2.35-.196 2.74-.979-1.174.196-1.957.196-2.74.98zm10.57 0c.196 0-.195 0 0 0zm-11.548.392h.587c0-.392-.196-.392-.587-.392v.392zm10.961-.196c.196 0 0-.196 0 0zm-6.655.196c-.783 0-1.566.195-1.762.978.783-.195 1.37-.391 1.762-.978.783.195 0-.588 0 0zm-7.047 1.566c.392.391 1.566.391 1.762-.392-.391-.783-1.37 0-1.762.392zm8.613-.588c-.196 0-.979-.391-.979.196.196.392.783.196.979-.196zm2.936.392c.391 0 .391.196.783.196.391-.196.783-.392.979-.588-.979.196-1.37-.195-1.762.392zm-7.047.196c.196 0 .392-.196.588-.392-.392 0-.588 0-.588.392zm4.894-.196c.196.196 0 0 0 0zm-9.983.196v.587c.392.196.587-.783.196-.783 0 .196 0 .391-.196.196zm-1.761.978c0 .392.783.196.978.587-.587.392-1.761-.391-1.957.588 1.566.587 2.544-.783 1.37-1.566 0 .391-.391.391-.391.391zm1.761 0c0-.195-.196-.391-.587-.391-.196.391-.196.783.587.391zm1.37.783c-.587 0-.978.196-1.174.392.391.587.783-.196 1.174-.392.783 0 .98-.587 1.37-.783-.587-.391-.782.587-1.37.783zm4.502-.391c.196 0 0-.196 0 0zm2.545.195c.196 0 .783 0 .587-.587h-.391c0 .392-.196.392-.196.587zm-15.072 2.35c0 .195.196.782.587.978.196-.587.392-.391.196-.979.979 0 1.762-.587 2.349-.783-.196-.783.391-.587.587-1.174-1.37.391-1.957 1.566-3.719 1.957zm11.157-1.175h.392v-.587h-.392v.587zm-5.285.391c0-.195.392-.391 0-.587v.587zm4.307-.391c.195.196-.196-.196 0 0zm1.957.196c-.196.587.196.783.783.783-.196-.783-.392-1.175-.783-.783zm-7.242.783c.195 0 .195.195.391.195 0-.391 0-.783-.391-.783v.588zm3.719 0c.195 0 0-.196 0 0zm.587-.392c0 .196-.196.196-.196.392.196-.196.196 0 .196-.392zm-5.285.587c-.783.196-1.37.588-1.762 1.37.587-.195 1.37-.782 1.762-1.37.979 0 0-.783 0 0zm6.46 0c.39 0 .782 0 .978-.195-.587-.196-.979 0-.979.195zm-4.111.588c.391 0 .587.195.978.195.196-.587-.783-.783-.978-.195zm4.697-.392c.196.783.588-.391 0 0zm-13.701 1.957c.978-.391 1.761-.195 2.349-.391 0-.587-.588-1.37-.98-.783.784.979-1.956-.196-1.37 1.174zm10.178-.782c.979 0 1.566 0 1.762-.588-.587.196-1.566 0-1.762.588zm3.132-.588c-.196 0-.391 0-.391.196.195 0 .391 0 .391-.196zm-7.83 1.175zm2.74.978c.392 0 1.371-.391.588-.783 0 .196-.196.196-.196.196v-.391c0 .392-.195.783-.391.978zm-8.807-.783c-.588.196-1.175.196-1.175.98.392-.197.392 0 .392.195h.978c.196-.587-.587-.587-.195-1.175.391-.195 0-.195 0 0zm2.74.98c.196-.197.783-.197.587-.784-.391.196-.783.196-.587.783zm4.306-.197c.783-.587-.587.392 0 0zm-.979.392c.588.391.588-.587.196-.392 0 .196-.196.392-.196.392zm1.958 0h-.587.587zm-6.264 0c-1.174.391-1.761.783-2.544 1.566.783.196 1.761-.783 2.544-1.566.196 0-.196 0 0 0zm-4.11.783c-.196-.196-.392-.392-.588-.392 0 .98-.783-.391-.978.588.978.783 2.544 0 2.936-.98h-.979c0 .588-.196.784-.391.784zm7.83-.392c.39.783.39-.587 0 0zm-.98.392c.196.196 0 0 0 0zm-.587.783c.196 0-.195-.196 0 0zm-8.416.587c.391-.196.391-.196.978 0-.196-.196 0-.587-.391-.587.195.587-.979-.196-.587.587zm7.633-.587c-.195 0-.195 0-.195.196 0 0 .195 0 .195-.196zm-7.046 1.957c1.174-.391 2.544-.587 3.132-1.761-1.37.391-2.154 1.174-3.132 1.761zm-1.762-.587c.587.783.196-.587 0 0zm7.047 0h-.392c.196 0 .392.391.392 0zm-8.026.587h.392v-.391h-.392v.391zm9.396-.196s-.196 0 0 0zm-2.936.392c.196.196-.196-.196 0 0zm-5.872 1.37c.978-.196 1.761-.783 2.153-1.37h-1.175c.196.979-.978.391-.978 1.37zm-2.545-.391c.391.978-1.566.783-.979 1.174.979 0 2.74-1.566 2.35.196.586 0 .782-.392.978-.783-.783 0-.587-.979-1.175-1.175 0 1.175-.391.392-1.174.588zm7.242-.392c-.195.196-.587.196-.587.392.196-.196.392 0 .587-.392zm1.175.587c.196.392.978.392.978-.195-.782 0-.782-.588-.978.195zm-.196-.195c-.196 0-.391 0-.391.195 0 0 .195 0 .391-.195zm-1.957.783c.195.195-.196 0 0 0zm1.174.587c.196 0-.196-.196 0 0zm-2.74.196h.587v-.196h-.587v.196zm-6.851.391h.391c0-.196.196-.196.196-.391-.196 0-.196-.196-.587-.196v.587zm3.327-.587s-.391 0-.587.196c.392 0 .587 0 .587-.196zm-2.348.391c0 .196-.196 0 0 0zm6.85.196h.588v-.391h-.588v.391zm-2.74.196c.392 0 1.175.196.783-.392-.391 0-.783.196-.783.392zm1.762-.196c-.587-.587-.392.783 0 0zm-10.179 2.74c.196.783.196-.587 0 0zm1.762.196c-.587.783.587-.391 0 0zm-.196.392c-.195 0-.391 0-.391.195 0 0 .391 0 .391-.195zm1.762.978c-.196 0-.196-.391-.587-.391-.392.587.587.783.587.391zm-.587 2.35c.195-.588-.392-.392-.588-.784 0 .587.196.783.588.783zm-1.175.782c-.195 0-.391 0-.391.196 0 0 .391 0 .391-.196zm-1.174.783c.391.587.587-.783 0 0zm-4.698 3.72c.587.39.783-.588.392-.784 0 .196-.196.392-.392.783zm1.762-.197c.195.196 0-.195 0 0zm-1.958.98c.588.586.392-.784 0 0zm.588 1.956c-.392 0-.392-.391-.783-.391-.392.587.783.783.783.391zm11.94 24.86h.587v-.392h-.587v.391zm12.135 3.718h.392v-.195h-.392v.195zm1.37.392c.196-.392-.39-.392-.587-.392-.195.392.196.588.588.392zm-4.501.587h.195v-.587h-.195v.587zm.783.391s-.196 0 0 0zm1.761.783c0-.587-.391-.783-.978-.783-.196.783.782.392.978.783zm4.698.392c.196.196-.196 0 0 0zm1.37.783h.392v-.196h-.392v.196zm-3.915.783c.196.196 0-.196 0 0zm1.762.783c.196-.392.391-.587.196-.783h-.392c0 .196 0 .587.196.783zm-1.762-.392c-.195.196-.391.196-.391.392.196-.196.391 0 .391-.392zm2.545 1.566c-.196-.587.783-.196.587-.978-.196 0-.391-.196-.587-.196.196.587-.783.978 0 1.174zm5.09-.587c-.197-.196-.588.196-.588.196-.392.978.979.195.587-.196zm.39.979h.196v-.392h-.195v.392zm-3.523 0c.196.978 1.175.195 0 0zm-.978.978c.195.783.195-.783 0 0zm2.74.196c.196.196 0 0 0 0zm1.174 1.175h.392v-.392h-.392v.392zm1.958 1.37c-.196-.587-.979-.783-1.37-1.37.195.978.587 1.174 1.37 1.37zm.587.391h.392c0-.196.195-.196.195-.391h-.783c-.195.195 0 .195.196.391zm3.523 2.74c1.37 2.154 3.328 3.328 5.09 4.894-.783-1.566-2.937-3.719-5.09-4.893-.783-.392-1.957-2.937-2.936-1.958 1.37.392 1.566 1.958 2.936 1.958zm6.851 6.46c-.196-.587-.783-.979-1.174-1.174.195.587.391.978 1.174 1.174zm2.35 3.915c.39.783.39-.783 0 0zm-19.966 16.833c.587 0 1.174 0 1.174-.391-.587 0-.979.196-1.174.391zm-1.566 1.175c-.587.195-1.566 0-1.566.978.587-.391 1.37-.391 1.566-.978h.391c-.195-.196 0-.196 0-.196v-.587c-.391 0-.391.391-.391.783zm-2.35 1.174h.588v-.587h-.587v.587zm-2.152 1.175c.978-.196 1.566-.392 1.761-.783-.195 0-.195-.392-.783-.196.392.783-1.174.391-.978.979zm-.979 0c.392.978.392-.588 0 0zm-.587.587c.783.196 0-.783 0 0-.392-.587-.587 0-1.37 0-.196 0 0 .783-.392.783-.783-.392-.783.783-1.761 0 .195.783-.392.587-.392.978.392 0 .392.196 1.175.196.195-.587 2.153-.783 2.74-1.957zm-6.068 1.957c-.196.392-.392 1.762-.979.783-.195.587-1.37 1.37-.783 1.958 0-.588.979-.588.979-.196.587-1.762 1.566-1.566 2.936-2.153-.391 0-.196-.392-.587-.392-.196.587-.979 0-1.566 0zm3.523 1.762c-1.957.587-3.719 1.566-4.697 3.132-.98.783-3.132 1.174-2.74 2.153 1.37-.979 3.522-1.566 4.697-3.328 0 .392.196.392.587.196.979-1.37 4.11-.783 4.306-3.72h-.587c-.391 1.371-.979.784-1.566 1.567zm-12.918 5.872c1.957-.979 4.306-3.328 6.655-4.306 0-.196.195-.783 0-.783-2.154 1.566-5.09 2.936-6.655 5.089zm4.501-.196c.392 0 .783 0 .783-.587h-.587c0 .196-.196.392-.196.587zm34.06.587c-.197-.391-.197-.782-.588-.978-.196.391-.196.978.587.978zm-35.43-.195c-.391-.783-.783.783 0 0-.391 1.37-1.957 1.174-2.153 2.153.979-.587 2.545-.979 2.936-2.349-.391-.587-.391 0-.783.196zm-3.914.783c0-.392.391-.196.587-.588-.392 0-.392-.391-.783-.391 0 .391-.196.783.196.979zm43.65-.588c0 .196-.196 0 0 0zm-5.873.588c.196.391.783.195.979-.392-.587 0-.979-.391-.979.392zm-38.952.391c-.196 0-.196-.196-.391-.196-.588 1.175-2.545 1.175-2.936 2.35.587-.392 1.174-1.175 2.348-1.175 0-.196 0-.587.392-.783.196.196.196.391.587.391v-.587h.587c.196-.587-.978-.587-.587 0zm40.518 0a.421.421 0 0 0 .392-.391c-.392 0-.588 0-.392.391zm-1.957.196c-.392.196-.783 0-.783.391.391 0 .783 0 .783-.391zm1.174.783h-.196c-.391.196-.587.391-.783.783.392.587.783 0 .783-.783.196.196.196 0 .196 0 .392-.196 0-.196 0 0zm-1.174 0c-.196.196-.588 0-.588.196.196 0 .588 0 .588-.196zm-37.19 1.37c.195.196 0 0 0 0zm36.994.587c-.392.196-1.175.196-.979.783.783.196.783-.391.979-.783h.196c.195-.195.391-.587 0-.783-.196.196-.392.392-.196.783zm-38.17.196c.588.196.784 0 .98-.391-.588 0-.588.391-.98.391zm35.43.587c0-.391-.196-.587-.392-.587 0 .196-.196.587.392.587zm-40.91-.391c.196.978.196-.587 0 0zm.979.587c.196.196-.196-.196 0 0zm41.496.196c-.391.587.783-.588 0 0zm-1.957 2.153c-.587 0-.783.391-.979.783.392-.196.98-.196.98-.783.586.196.978-.783.586-.979 0 .587-.783.587-.587.979zm-2.74 0c-.196.196-.392 0-.392.196 0 0 .392 0 .392-.196zm-34.45.783c-.196 0-.392 0-.392.195.196 0 .392 0 .392-.195zm35.624.978c.196-.391.979-.783.196-.978 0 .195-.979.587-.196.978zm-2.74-.391c-.392 0-.587 0-.587.196.195 0 .391 0 .587-.196zm-1.566.391c.391.783.587-.783 0 0zm.979.196c-.392.783.587-.587 0 0zm.783 1.958c.978-.392 1.566-1.175 2.153-1.958-1.175.196-1.566.979-2.153 1.958zm-1.958-.98c-.391 0-.391-.39-.783-.195-.195.587.392.587.979.392-.196-.196.196-.98-.196-.98v.784zm6.46-.586v.587c.391.196.391-.783.195-.783 0 .196 0 .391-.195.196zm-8.221 1.37c-.392 0 .195.979 0 0 .391-.196.391.196.783.196 0-.588-.196-.783-.783-.783v.587zm2.936.783c.195 0 .587.196.587-.392h-.392c0 .196-.195.392-.195.392zm-3.72 0c.196.587.392-.783 0 0zm3.328.196c-.391.782.587-.392 0 0zm3.132-.196c-.196.196-.391.196-.391.196.195 0 .195 0 .391-.196zm-8.025 1.37c-2.936.391-5.677 2.936-8.417 4.306.783-.391 1.566.587 1.762-.196-.588 0-.588-.195-.588-.587 1.958.392 2.153-1.37 2.936-.978 1.175-2.154 3.132-.783 4.307-2.545.195-.392 1.174 0 .978-.979-.783-.195-1.174.196-.978.979zm3.914 0c.588-.587.98 0 1.175-.392-.196-.391-1.37-.782-1.175.392zm2.154 0c.783.196 1.761-.196.978-.587-.195.587-1.174.195-.978.587zm-1.37 1.174c.587-.195.978-.391 1.174-1.174-.587 0-.979.587-1.175 1.174zm-2.74-.195c-.392-.196-1.175.587-.588.783.196-.392.783 0 .587-.783.196 0 .392-.196.392-.588-.196 0-.392.196-.392.588zm.39 1.174c.588.392 1.566 0 1.762-.391-.587.195-1.37.195-1.761.391zm-10.178 0zm6.655.979s-.195-.196 0 0zm-2.349.587v.979c.392-.392.98-.588 1.37-1.175-.782-.195-.782.392-1.37.196zm3.328.783c.587.391.587-.979 0-.783v.783zm-13.115-.196c.588.979.392-.783 0 0zm2.545 0c0 .196-.196-.196 0 0zm6.46.196c.587.979.39-.783 0 0zm-10.179.391c0-.195-.587-.195-1.174-.195-.392.783 1.174.587 1.174.195zm5.872-.195c-.196.195-.587 0-.587.195.196 0 .391 0 .587-.195zm3.523.783h.392v-.783h-.587c0 .391 0 .587.195.783zm-5.284 0c-.588 0-.783.391-.783.783.783.195.391-.588.783-.783.391 0 .782 0 .978-.588-.783 0-.978.392-.978.588zm9.2 0c.586.587.39-.783 0 0zm-19.966 1.174c.196.783.196 1.957.979 1.37-.392 0-.392-.195-.392-.587 1.175 0 2.349.196 2.936-.783-.196 0-.587.196-.783-.196.587-.391 1.37 0 1.762-.587-1.762-.391-3.328 1.175-4.502.783zm5.09-.587h.39c.392-.392-.782-.587-.782-.196.195.196.391.196.391.196zm9.982.391c.196-.391.783-.587 0-.783.196.392-.587.588 0 .783zm-6.851-.195c-.196.391-.392.587-.392 1.174.588-.391 1.37-.979 1.958-1.37-.783 0-1.175.196-1.566.196-.196-.196-.392 0 0 0zm5.676.195c.196 0 .392.196.588.196-.196-.391 0-.587-.588-.587v.391zm-9.2.196h.392v-.391h-.391v.391zm11.94 0h.196v-.391h-.195v.391zm-17.224.196c-2.35.196-3.72.391-4.502 1.566.587 0 .587-.392 1.174-.392.196.392.196 0 0 0 .196-.391 1.762-.783 1.958 0-.392.196-.392-.195-.783-.195.195 1.174 2.153.587 2.74 0-.196-.196-.783 0-.783-.392.196 0 .196-.391.196-.587.391 0 0-.196 0 0zm17.42.391c.392.783 0-.783 0 0zm-14.093 1.566c1.37-.391 3.915 0 4.502-1.566-1.761.392-3.523.588-4.502 1.566zm12.528-1.37c.195.196 0-.196 0 0zm-.588.196c.196.196-.195 0 0 0zm-12.527 1.174c.196.196-.196 0 0 0zm-2.153.392c-.979-.392-.783.783 0 0zm1.37-.196c-.391 0-.979 0-.979.196.392.195.98.195.98-.196zm45.216-44.041c.391 0 .391.195.391.587h-.391v-.587zm0 .783c.783 0 .391 1.174.587 1.37-.587 0-.587-.392-.587-1.37zm.587 2.153c.783-.587-.392.783 0 0zm-.196 1.174c.783.392 1.175 2.936 0 3.132v-3.132zm0 4.306c.587.196 0 .98 0 .98-.391 0 0-.784 0-.98zm0 2.545s-.196-.196 0 0zm-27.403.196c-.392.196-.783.587-1.37.783 0-.783.978-.979 1.37-.783zm10.57 23.488c.195 0-.196-.195 0 0zm-.196.392s0-.196.196-.392c-.196 0-.196.196-.196.392zm0 0c-.196 0 0 0 0 0z"/></svg>